# xmcd
#
# Track frame offsets:
#        150
#        18065
#        34182
#
# Disc length: 693 seconds
#
# Revision: 9
# Processed by: cddbd v1.5.2PL0 Copyright (c) Steve Scherf et al.
# Submitted via: ExactAudioCopy v0.99pb3
#
DISCID=1602b303
DTITLE=Cave Nick & The Bad Seeds Feat. Kylie Minogue / Where The Wild
DTITLE=Roses Grow (Maxi)
DYEAR=1995
DGENRE=Pop
TTITLE0=Where The Wild Roses Grow
TTITLE1=The Ballad Of Robert Moore And Betty Coltrane
TTITLE2=The Willow Garden
EXTD=YEAR: 1995
EXTT0=
EXTT1=
EXTT2=
PLAYORDER=
.
